<?xml version="1.0" standalone="no"?>
<!DOCTYPE svg PUBLIC "-//W3C//DTD SVG 20010904//EN"
 "http://www.w3.org/TR/2001/REC-SVG-20010904/DTD/svg10.dtd">
<svg version="1.0" xmlns="http://www.w3.org/2000/svg"
 width="700.000000pt" height="700.000000pt" viewBox="0 0 700.000000 700.000000"
 preserveAspectRatio="xMidYMid meet">
<metadata>
Created by potrace 1.14, written by Peter Selinger 2001-2017
</metadata>
<g transform="translate(0.000000,700.000000) scale(0.100000,-0.100000)"
fill="#000000" stroke="none">
<path d="M3974 6064 c-84 -18 -135 -38 -201 -79 -83 -52 -167 -144 -208 -229
-65 -131 -65 -129 -64 -956 0 -686 2 -750 18 -810 40 -143 90 -218 219 -329
35 -29 139 -77 208 -95 46 -12 110 -16 243 -16 102 0 181 -4 181 -9 0 -8 -70
-200 -90 -246 -29 -65 -190 -509 -186 -512 2 -2 98 54 212 125 273 169 494
305 516 317 20 11 385 236 438 270 93 59 38 54 677 58 323 1 600 6 616 10 104
28 208 88 280 164 82 85 117 149 146 263 20 82 21 104 21 817 0 819 0 825 -67
953 -70 133 -188 236 -333 287 l-75 27 -1246 1 c-953 1 -1260 -2 -1305 -11z
m1054 -756 l222 -221 220 219 c121 120 222 220 224 222 2 1 65 -59 140 -134
l137 -136 -218 -219 c-120 -120 -219 -222 -220 -226 -1 -4 97 -107 218 -228
l220 -219 -133 -133 c-73 -73 -137 -133 -143 -133 -5 0 -106 97 -224 215 -118
118 -217 215 -221 215 -4 0 -103 -97 -221 -215 -118 -118 -219 -215 -224 -215
-6 0 -70 60 -143 133 l-133 133 220 219 c122 121 219 224 218 228 -1 5 -101
106 -220 226 l-218 218 133 135 c73 75 136 136 139 137 3 0 106 -99 227 -221z"/>
<path d="M1430 5003 c-621 -55 -1150 -469 -1349 -1058 -16 -49 -33 -103 -36
-120 -32 -150 -37 -198 -40 -350 -3 -230 23 -382 102 -584 92 -240 235 -442
438 -620 l39 -34 0 -656 1 -656 825 0 825 0 1 285 c1 157 2 288 3 291 1 3 52
6 114 6 61 0 135 3 162 7 155 23 286 103 395 243 10 13 64 126 76 158 22 62
27 130 28 355 l1 205 217 5 c203 5 219 6 238 26 49 48 46 57 -163 515 l-194
426 -6 105 c-3 57 -8 111 -11 119 -3 8 -7 30 -9 49 -20 157 -103 375 -209 548
-144 236 -390 460 -638 579 -140 68 -312 123 -425 138 -27 3 -58 8 -67 11 -20
6 -267 11 -318 7z m1275 -1572 c77 -35 123 -119 111 -204 -22 -154 -219 -217
-328 -106 -79 80 -75 196 7 276 24 23 54 43 67 46 52 10 105 6 143 -12z"/>
</g>
</svg>
